<?xml version="1.0" standalone="no"?>
<!DOCTYPE svg PUBLIC "-//W3C//DTD SVG 20010904//EN"
 "http://www.w3.org/TR/2001/REC-SVG-20010904/DTD/svg10.dtd">
<svg version="1.0" xmlns="http://www.w3.org/2000/svg"
 width="512.000000pt" height="512.000000pt" viewBox="0 0 512.000000 512.000000"
 preserveAspectRatio="xMidYMid meet">

<g transform="translate(0.000000,512.000000) scale(0.100000,-0.100000)"
fill="#000000" stroke="none">
<path d="M3800 3232 l-45 -87 -80 -12 c-44 -6 -86 -12 -92 -12 -27 -2 -10 -30
53 -91 l67 -64 -17 -90 c-9 -53 -12 -94 -7 -99 5 -5 44 10 93 36 l83 46 84
-46 c45 -25 86 -41 91 -37 4 5 1 51 -8 103 l-15 94 66 59 c64 57 82 87 55 89
-7 0 -49 6 -93 12 l-80 12 -45 87 c-25 49 -49 88 -55 88 -5 0 -30 -39 -55 -88z"/>
<path d="M960 2086 c0 -2 8 -10 18 -17 15 -13 16 -12 3 4 -13 16 -21 21 -21
13z"/>
<path d="M4071 2054 c0 -11 3 -14 6 -6 3 7 2 16 -1 19 -3 4 -6 -2 -5 -13z"/>
<path d="M1035 2000 c10 -11 20 -20 23 -20 3 0 -3 9 -13 20 -10 11 -20 20 -23
20 -3 0 3 -9 13 -20z"/>
<path d="M1080 1957 c0 -3 18 -20 40 -37 22 -17 40 -29 40 -27 0 3 -18 20 -40
37 -22 17 -40 29 -40 27z"/>
<path d="M3989 1883 c-13 -16 -12 -17 4 -4 9 7 17 15 17 17 0 8 -8 3 -21 -13z"/>
<path d="M1170 1881 c0 -9 30 -24 36 -18 2 1 -6 8 -16 15 -11 7 -20 8 -20 3z"/>
<path d="M1214 1843 c8 -8 76 -32 76 -27 0 2 -9 8 -21 14 -24 13 -65 22 -55
13z"/>
<path d="M3919 1794 c-13 -15 -55 -48 -93 -75 -38 -27 -65 -49 -60 -49 5 0 18
7 28 15 16 12 22 12 35 2 14 -11 15 -10 1 7 -14 18 -13 19 3 13 10 -4 16 -3
12 3 -5 9 30 34 50 35 6 0 10 5 10 10 0 6 4 16 9 23 6 11 11 11 24 0 15 -11
15 -11 5 3 -10 12 -10 18 -1 27 7 7 10 12 7 12 -3 0 -16 -12 -30 -26z"/>
<path d="M1310 1800 c8 -5 20 -10 25 -10 6 0 3 5 -5 10 -8 5 -19 10 -25 10 -5
0 -3 -5 5 -10z"/>
<path d="M1358 1778 c5 -5 16 -8 23 -6 8 3 3 7 -10 11 -17 4 -21 3 -13 -5z"/>
<path d="M1410 1760 c8 -5 22 -9 30 -9 10 0 8 3 -5 9 -27 12 -43 12 -25 0z"/>
<path d="M1475 1741 c11 -5 33 -10 48 -10 24 -1 27 -4 22 -23 -4 -15 -3 -18 2
-11 6 9 13 1 22 -25 8 -20 18 -48 24 -62 5 -14 11 -32 12 -40 4 -35 17 -60 31
-60 8 0 14 -5 14 -11 0 -5 -4 -8 -9 -5 -4 3 -17 -4 -27 -17 -19 -22 -19 -22 2
-4 20 16 21 16 33 -7 8 -13 11 -28 7 -34 -7 -11 31 -48 41 -38 4 3 1 12 -5 18
-20 20 -13 29 7 11 11 -9 17 -21 14 -26 -4 -6 -1 -7 7 -2 8 5 11 3 8 -6 -3 -8
-11 -13 -17 -11 -7 1 -10 -2 -7 -7 6 -8 -25 -21 -52 -21 -9 0 -10 5 -2 19 18
36 10 44 -16 17 -25 -24 -44 -33 -44 -20 0 3 7 12 15 21 8 8 12 19 9 25 -4 6
-10 6 -17 -1 -6 -6 -44 -11 -84 -11 -65 0 -73 2 -73 19 0 16 -11 20 -81 26
-105 9 -719 -5 -719 -16 0 -5 -142 -9 -320 -9 l-320 0 0 -710 0 -710 2560 0
2560 0 0 690 0 690 -879 2 -880 3 3 -25 c2 -14 1 -17 -1 -8 -2 9 -10 15 -18
12 -7 -3 -11 -14 -7 -26 4 -16 1 -19 -19 -16 -17 2 -24 10 -25 26 -1 15 3 21
11 18 7 -2 21 2 32 9 14 11 15 16 6 26 -18 18 11 42 50 42 18 0 24 2 14 4 -11
3 -16 10 -13 19 3 9 1 12 -4 9 -6 -3 -10 -1 -10 4 0 6 4 11 9 11 5 0 12 11 15
25 4 14 11 23 16 20 6 -4 7 -11 4 -17 -4 -7 -2 -8 5 -4 9 6 9 11 1 21 -8 10
-7 21 5 44 15 30 18 31 88 32 96 1 114 4 167 28 25 12 36 19 25 16 -84 -26
-139 -35 -202 -35 l-72 0 -19 -42 c-11 -24 -40 -73 -65 -111 -40 -60 -43 -68
-29 -78 15 -9 15 -10 -2 -4 -14 4 -32 -7 -67 -41 -27 -26 -45 -52 -42 -57 3
-6 1 -7 -4 -4 -13 8 -46 -27 -36 -38 5 -4 3 -5 -4 -2 -6 4 -25 -5 -42 -19 -18
-15 -65 -45 -106 -69 -41 -23 -71 -46 -67 -50 4 -5 2 -5 -4 -2 -6 3 -44 -7
-85 -23 -120 -46 -233 -63 -389 -57 -166 6 -269 33 -420 109 -58 29 -109 52
-113 50 -5 -1 -6 2 -3 7 3 5 -5 16 -19 25 -50 33 -160 143 -210 211 -54 72
-108 172 -140 258 -10 26 -21 49 -24 51 -3 2 -26 6 -51 10 -31 4 -39 3 -25 -3z
m159 -207 c3 -8 2 -12 -4 -9 -6 3 -10 10 -10 16 0 14 7 11 14 -7z m1746 -74
c0 -5 -5 -10 -11 -10 -5 0 -7 5 -4 10 3 6 8 10 11 10 2 0 4 -4 4 -10z m-1635
-100 c-3 -5 -10 -10 -16 -10 -5 0 -9 5 -9 10 0 6 7 10 16 10 8 0 12 -4 9 -10z
m33 -35 c-3 -3 -9 2 -12 12 -6 14 -5 15 5 6 7 -7 10 -15 7 -18z m2205 8 c-57
-2 -149 -2 -205 0 -57 1 -11 3 102 3 113 0 159 -2 103 -3z m-2192 -46 c-8 -8
-14 -7 -23 2 -11 10 -9 11 6 5 15 -6 17 -4 11 6 -6 9 -4 11 4 5 9 -5 10 -10 2
-18z m86 -67 c14 -11 22 -20 18 -20 -4 0 -18 9 -32 20 -14 11 -22 20 -18 20 4
0 18 -9 32 -20z m1303 -1 c0 -5 5 -7 12 -3 7 4 8 3 4 -5 -6 -9 -11 -9 -22 0
-17 14 -18 19 -4 19 6 0 10 -5 10 -11z"/>
<path d="M1525 1659 c-4 -6 -5 -12 -2 -15 2 -3 7 2 10 11 7 17 1 20 -8 4z"/>
<path d="M1550 1656 c0 -8 4 -17 9 -20 5 -4 7 3 4 14 -6 23 -13 26 -13 6z"/>
<path d="M3715 1620 c-3 -5 -1 -10 4 -10 6 0 11 5 11 10 0 6 -2 10 -4 10 -3 0
-8 -4 -11 -10z"/>
<path d="M3460 1520 c0 -5 5 -10 11 -10 5 0 7 5 4 10 -3 6 -8 10 -11 10 -2 0
-4 -4 -4 -10z"/>
<path d="M3410 1484 c0 -22 27 -48 32 -31 3 6 -4 20 -14 30 -16 15 -18 15 -18
1z"/>
<path d="M3506 1461 c-4 -7 -5 -15 -2 -18 9 -9 19 4 14 18 -4 11 -6 11 -12 0z"/>
<path d="M1620 1450 c-12 -7 -10 -9 7 -7 12 0 19 5 17 9 -6 10 -6 10 -24 -2z"/>
<path d="M3758 1413 c45 -2 119 -2 165 0 45 1 8 3 -83 3 -91 0 -128 -2 -82 -3z"/>
</g>
</svg>
